<mxfile host="65bd71144e">
    <diagram id="PBnlzqda9t2enoDprxGE" name="第 1 页">
        <mxGraphModel dx="-1454" dy="1695" grid="1" gridSize="10" guides="1" tooltips="1" connect="1" arrows="1" fold="1" page="1" pageScale="1" pageWidth="827" pageHeight="1169" math="0" shadow="0">
            <root>
                <mxCell id="0"/>
                <mxCell id="1" parent="0"/>
                <mxCell id="2" value="群聊管理" style="swimlane;childLayout=stackLayout;resizeParent=1;resizeParentMax=0;startSize=20;html=1;gradientColor=none;swimlaneFillColor=default;" vertex="1" parent="1">
                    <mxGeometry x="1654.0000000000005" y="-1110" width="800" height="1380" as="geometry"/>
                </mxCell>
                <mxCell id="3" value="群主" style="swimlane;startSize=20;html=1;gradientColor=none;" vertex="1" parent="2">
                    <mxGeometry y="20" width="200" height="1360" as="geometry"/>
                </mxCell>
                <mxCell id="4" value="选择好友建立群聊" style="rounded=0;whiteSpace=wrap;html=1;gradientColor=none;" vertex="1" parent="3">
                    <mxGeometry x="62.499999999999545" y="40" width="75" height="40" as="geometry"/>
                </mxCell>
                <mxCell id="5" value="" style="edgeStyle=none;html=1;" edge="1" parent="3" source="6" target="8">
                    <mxGeometry relative="1" as="geometry"/>
                </mxCell>
                <mxCell id="6" value="处理请求" style="rhombus;whiteSpace=wrap;html=1;rounded=0;gradientColor=none;spacingLeft=0;spacingRight=0;" vertex="1" parent="3">
                    <mxGeometry x="62.5" y="385" width="80" height="50" as="geometry"/>
                </mxCell>
                <mxCell id="7" value="刷新群聊" style="whiteSpace=wrap;html=1;rounded=0;gradientColor=none;spacingLeft=20;spacingRight=20;" vertex="1" parent="3">
                    <mxGeometry x="67.5" y="190" width="75" height="40" as="geometry"/>
                </mxCell>
                <mxCell id="8" value="同意" style="whiteSpace=wrap;html=1;rounded=0;gradientColor=none;spacingLeft=0;spacingRight=0;" vertex="1" parent="3">
                    <mxGeometry x="62.5" y="510" width="75" height="40" as="geometry"/>
                </mxCell>
                <mxCell id="9" value="" style="edgeStyle=none;html=1;" edge="1" parent="3" source="10" target="12">
                    <mxGeometry relative="1" as="geometry"/>
                </mxCell>
                <mxCell id="10" value="刷新会话" style="whiteSpace=wrap;html=1;rounded=0;gradientColor=none;spacingLeft=0;spacingRight=0;" vertex="1" parent="3">
                    <mxGeometry x="62.5" y="630" width="75" height="40" as="geometry"/>
                </mxCell>
                <mxCell id="11" value="" style="edgeStyle=none;html=1;" edge="1" parent="3" source="12" target="14">
                    <mxGeometry relative="1" as="geometry"/>
                </mxCell>
                <mxCell id="12" value="邀请好友" style="whiteSpace=wrap;html=1;rounded=0;gradientColor=none;spacingLeft=0;spacingRight=0;" vertex="1" parent="3">
                    <mxGeometry x="62.5" y="750" width="75" height="40" as="geometry"/>
                </mxCell>
                <mxCell id="13" value="" style="edgeStyle=none;html=1;" edge="1" parent="3" source="14" target="16">
                    <mxGeometry relative="1" as="geometry"/>
                </mxCell>
                <mxCell id="14" value="设置管理员" style="whiteSpace=wrap;html=1;rounded=0;gradientColor=none;spacingLeft=0;spacingRight=0;" vertex="1" parent="3">
                    <mxGeometry x="62.5" y="870" width="75" height="40" as="geometry"/>
                </mxCell>
                <mxCell id="15" value="" style="edgeStyle=none;html=1;" edge="1" parent="3" source="16" target="18">
                    <mxGeometry relative="1" as="geometry"/>
                </mxCell>
                <mxCell id="16" value="踢出管理员和群员" style="whiteSpace=wrap;html=1;rounded=0;gradientColor=none;spacingLeft=0;spacingRight=0;" vertex="1" parent="3">
                    <mxGeometry x="62.5" y="940" width="75" height="40" as="geometry"/>
                </mxCell>
                <mxCell id="17" value="" style="edgeStyle=none;html=1;" edge="1" parent="3" source="18" target="19">
                    <mxGeometry relative="1" as="geometry"/>
                </mxCell>
                <mxCell id="18" value="转让群主" style="whiteSpace=wrap;html=1;rounded=0;gradientColor=none;spacingLeft=0;spacingRight=0;" vertex="1" parent="3">
                    <mxGeometry x="62.5" y="1060" width="75" height="40" as="geometry"/>
                </mxCell>
                <mxCell id="19" value="编辑群公告" style="whiteSpace=wrap;html=1;rounded=0;gradientColor=none;spacingLeft=0;spacingRight=0;" vertex="1" parent="3">
                    <mxGeometry x="62.5" y="1180" width="75" height="40" as="geometry"/>
                </mxCell>
                <mxCell id="20" value="刷新群公告" style="whiteSpace=wrap;html=1;rounded=0;gradientColor=none;spacingLeft=0;spacingRight=0;" vertex="1" parent="3">
                    <mxGeometry x="62.5" y="1260" width="75" height="40" as="geometry"/>
                </mxCell>
                <mxCell id="21" value="管理员" style="swimlane;startSize=20;html=1;gradientColor=none;" vertex="1" parent="2">
                    <mxGeometry x="200" y="20" width="200" height="1360" as="geometry"/>
                </mxCell>
                <mxCell id="22" value="" style="edgeStyle=none;html=1;" edge="1" parent="21" source="23" target="24">
                    <mxGeometry relative="1" as="geometry"/>
                </mxCell>
                <mxCell id="23" value="处理请求" style="rhombus;whiteSpace=wrap;html=1;rounded=0;gradientColor=none;spacingLeft=0;spacingRight=0;" vertex="1" parent="21">
                    <mxGeometry x="60" y="385" width="80" height="50" as="geometry"/>
                </mxCell>
                <mxCell id="24" value="拒绝" style="whiteSpace=wrap;html=1;rounded=0;gradientColor=none;spacingLeft=0;spacingRight=0;" vertex="1" parent="21">
                    <mxGeometry x="6" y="466" width="75" height="40" as="geometry"/>
                </mxCell>
                <mxCell id="25" value="刷新群聊" style="whiteSpace=wrap;html=1;rounded=0;gradientColor=none;spacingLeft=20;spacingRight=20;" vertex="1" parent="21">
                    <mxGeometry x="62.5" y="190" width="75" height="40" as="geometry"/>
                </mxCell>
                <mxCell id="26" value="" style="edgeStyle=none;html=1;" edge="1" parent="21" source="27" target="29">
                    <mxGeometry relative="1" as="geometry"/>
                </mxCell>
                <mxCell id="27" value="刷新会话" style="whiteSpace=wrap;html=1;rounded=0;gradientColor=none;spacingLeft=0;spacingRight=0;" vertex="1" parent="21">
                    <mxGeometry x="62.5" y="630" width="75" height="40" as="geometry"/>
                </mxCell>
                <mxCell id="28" value="" style="edgeStyle=none;html=1;" edge="1" parent="21" source="29" target="30">
                    <mxGeometry relative="1" as="geometry"/>
                </mxCell>
                <mxCell id="29" value="邀请好友" style="whiteSpace=wrap;html=1;rounded=0;gradientColor=none;spacingLeft=0;spacingRight=0;" vertex="1" parent="21">
                    <mxGeometry x="62.5" y="750" width="75" height="40" as="geometry"/>
                </mxCell>
                <mxCell id="30" value="踢出群员" style="whiteSpace=wrap;html=1;rounded=0;gradientColor=none;spacingLeft=0;spacingRight=0;" vertex="1" parent="21">
                    <mxGeometry x="62.5" y="940" width="75" height="40" as="geometry"/>
                </mxCell>
                <mxCell id="31" value="刷新群公告" style="whiteSpace=wrap;html=1;rounded=0;gradientColor=none;spacingLeft=0;spacingRight=0;" vertex="1" parent="21">
                    <mxGeometry x="62.5" y="1260" width="75" height="40" as="geometry"/>
                </mxCell>
                <mxCell id="32" value="群员" style="swimlane;startSize=20;html=1;gradientColor=none;" vertex="1" parent="2">
                    <mxGeometry x="400" y="20" width="200" height="1360" as="geometry"/>
                </mxCell>
                <mxCell id="33" value="" style="edgeStyle=none;html=1;" edge="1" parent="32" source="34" target="35">
                    <mxGeometry relative="1" as="geometry"/>
                </mxCell>
                <mxCell id="34" value="刷新群聊" style="whiteSpace=wrap;html=1;rounded=0;gradientColor=none;spacingLeft=20;spacingRight=20;" vertex="1" parent="32">
                    <mxGeometry x="62.5" y="190" width="75" height="40" as="geometry"/>
                </mxCell>
                <mxCell id="35" value="邀请好友" style="whiteSpace=wrap;html=1;rounded=0;gradientColor=none;spacingLeft=20;spacingRight=20;" vertex="1" parent="32">
                    <mxGeometry x="62.5" y="270" width="75" height="40" as="geometry"/>
                </mxCell>
                <mxCell id="36" value="" style="edgeStyle=none;html=1;" edge="1" parent="32" source="37" target="38">
                    <mxGeometry relative="1" as="geometry"/>
                </mxCell>
                <mxCell id="37" value="刷新会话" style="whiteSpace=wrap;html=1;rounded=0;gradientColor=none;spacingLeft=0;spacingRight=0;" vertex="1" parent="32">
                    <mxGeometry x="62.5" y="630" width="75" height="40" as="geometry"/>
                </mxCell>
                <mxCell id="38" value="退出群聊" style="whiteSpace=wrap;html=1;rounded=0;gradientColor=none;spacingLeft=0;spacingRight=0;" vertex="1" parent="32">
                    <mxGeometry x="62.5" y="790" width="75" height="40" as="geometry"/>
                </mxCell>
                <mxCell id="39" value="刷新群公告" style="whiteSpace=wrap;html=1;rounded=0;gradientColor=none;spacingLeft=0;spacingRight=0;" vertex="1" parent="32">
                    <mxGeometry x="62.5" y="1260" width="75" height="40" as="geometry"/>
                </mxCell>
                <mxCell id="40" value="后端" style="swimlane;startSize=20;html=1;gradientColor=none;" vertex="1" parent="2">
                    <mxGeometry x="600" y="20" width="200" height="1360" as="geometry"/>
                </mxCell>
                <mxCell id="41" value="判断人数与好友关系" style="rhombus;whiteSpace=wrap;html=1;rounded=0;gradientColor=none;spacingLeft=20;spacingRight=20;" vertex="1" parent="40">
                    <mxGeometry x="37.5" y="110" width="125" height="60" as="geometry"/>
                </mxCell>
                <mxCell id="42" value="创建群聊请求" style="whiteSpace=wrap;html=1;rounded=0;gradientColor=none;spacingLeft=0;spacingRight=0;" vertex="1" parent="40">
                    <mxGeometry x="62.5" y="330" width="75" height="40" as="geometry"/>
                </mxCell>
                <mxCell id="43" value="删除请求" style="whiteSpace=wrap;html=1;rounded=0;gradientColor=none;spacingLeft=0;spacingRight=0;" vertex="1" parent="40">
                    <mxGeometry x="62.5" y="466" width="75" height="40" as="geometry"/>
                </mxCell>
                <mxCell id="44" value="处理群员身份" style="whiteSpace=wrap;html=1;rounded=0;gradientColor=none;spacingLeft=0;spacingRight=0;" vertex="1" parent="40">
                    <mxGeometry x="62.5" y="565" width="75" height="40" as="geometry"/>
                </mxCell>
                <mxCell id="45" value="更新公告列表" style="whiteSpace=wrap;html=1;rounded=0;gradientColor=none;spacingLeft=0;spacingRight=0;" vertex="1" parent="40">
                    <mxGeometry x="76" y="1180" width="75" height="40" as="geometry"/>
                </mxCell>
                <mxCell id="46" value="" style="edgeStyle=none;html=1;" edge="1" parent="2" source="4" target="41">
                    <mxGeometry relative="1" as="geometry">
                        <Array as="points">
                            <mxPoint x="99.99999999999955" y="160"/>
                        </Array>
                    </mxGeometry>
                </mxCell>
                <mxCell id="47" style="edgeStyle=none;html=1;exitX=0.5;exitY=0;exitDx=0;exitDy=0;entryX=1;entryY=0.5;entryDx=0;entryDy=0;" edge="1" parent="2" source="41" target="4">
                    <mxGeometry relative="1" as="geometry">
                        <Array as="points">
                            <mxPoint x="699.9999999999995" y="80"/>
                        </Array>
                    </mxGeometry>
                </mxCell>
                <mxCell id="48" value="人数少于2人或好友关系错误" style="edgeLabel;html=1;align=center;verticalAlign=middle;resizable=0;points=[];" vertex="1" connectable="0" parent="47">
                    <mxGeometry x="0.282" y="-2" relative="1" as="geometry">
                        <mxPoint as="offset"/>
                    </mxGeometry>
                </mxCell>
                <mxCell id="49" value="" style="edgeStyle=none;html=1;" edge="1" parent="2" source="41" target="34">
                    <mxGeometry relative="1" as="geometry">
                        <Array as="points">
                            <mxPoint x="699.9999999999995" y="230"/>
                        </Array>
                    </mxGeometry>
                </mxCell>
                <mxCell id="50" value="websocket" style="edgeLabel;html=1;align=center;verticalAlign=middle;resizable=0;points=[];" vertex="1" connectable="0" parent="49">
                    <mxGeometry x="0.116" y="-1" relative="1" as="geometry">
                        <mxPoint as="offset"/>
                    </mxGeometry>
                </mxCell>
                <mxCell id="51" value="" style="edgeStyle=none;html=1;" edge="1" parent="2" source="34" target="25">
                    <mxGeometry relative="1" as="geometry"/>
                </mxCell>
                <mxCell id="52" value="" style="edgeStyle=none;html=1;" edge="1" parent="2" source="35" target="42">
                    <mxGeometry relative="1" as="geometry">
                        <Array as="points">
                            <mxPoint x="499.99999999999955" y="370"/>
                        </Array>
                    </mxGeometry>
                </mxCell>
                <mxCell id="53" value="" style="edgeStyle=none;html=1;" edge="1" parent="2" source="42" target="23">
                    <mxGeometry relative="1" as="geometry">
                        <Array as="points">
                            <mxPoint x="699.9999999999995" y="430"/>
                        </Array>
                    </mxGeometry>
                </mxCell>
                <mxCell id="54" value="websocket" style="edgeLabel;html=1;align=center;verticalAlign=middle;resizable=0;points=[];" vertex="1" connectable="0" parent="53">
                    <mxGeometry x="0.2363" y="-2" relative="1" as="geometry">
                        <mxPoint as="offset"/>
                    </mxGeometry>
                </mxCell>
                <mxCell id="55" value="" style="edgeStyle=none;html=1;" edge="1" parent="2" source="23" target="6">
                    <mxGeometry relative="1" as="geometry"/>
                </mxCell>
                <mxCell id="56" style="edgeStyle=none;html=1;exitX=1;exitY=1;exitDx=0;exitDy=0;entryX=0;entryY=0;entryDx=0;entryDy=0;" edge="1" parent="2" source="6" target="24">
                    <mxGeometry relative="1" as="geometry"/>
                </mxCell>
                <mxCell id="57" value="" style="edgeStyle=none;html=1;" edge="1" parent="2" source="24" target="43">
                    <mxGeometry relative="1" as="geometry"/>
                </mxCell>
                <mxCell id="58" value="" style="edgeStyle=none;html=1;" edge="1" parent="2" source="25" target="7">
                    <mxGeometry relative="1" as="geometry"/>
                </mxCell>
                <mxCell id="59" style="edgeStyle=none;html=1;exitX=0.25;exitY=0;exitDx=0;exitDy=0;entryX=0.5;entryY=1;entryDx=0;entryDy=0;" edge="1" parent="2" source="43" target="25">
                    <mxGeometry relative="1" as="geometry"/>
                </mxCell>
                <mxCell id="60" style="edgeStyle=none;html=1;exitX=0;exitY=0;exitDx=0;exitDy=0;entryX=1;entryY=1;entryDx=0;entryDy=0;" edge="1" parent="2" source="43" target="7">
                    <mxGeometry relative="1" as="geometry"/>
                </mxCell>
                <mxCell id="61" style="edgeStyle=none;html=1;exitX=0;exitY=1;exitDx=0;exitDy=0;entryX=0.571;entryY=-0.051;entryDx=0;entryDy=0;entryPerimeter=0;" edge="1" parent="2" source="23" target="8">
                    <mxGeometry relative="1" as="geometry"/>
                </mxCell>
                <mxCell id="62" value="" style="edgeStyle=none;html=1;" edge="1" parent="2" source="8" target="44">
                    <mxGeometry relative="1" as="geometry">
                        <Array as="points">
                            <mxPoint x="99.99999999999955" y="600"/>
                        </Array>
                    </mxGeometry>
                </mxCell>
                <mxCell id="63" value="websocket" style="edgeStyle=none;html=1;" edge="1" parent="2" source="44" target="37">
                    <mxGeometry relative="1" as="geometry">
                        <Array as="points">
                            <mxPoint x="699.9999999999995" y="670"/>
                        </Array>
                    </mxGeometry>
                </mxCell>
                <mxCell id="64" value="" style="edgeStyle=none;html=1;" edge="1" parent="2" source="37" target="27">
                    <mxGeometry relative="1" as="geometry"/>
                </mxCell>
                <mxCell id="65" value="" style="edgeStyle=none;html=1;" edge="1" parent="2" source="27" target="10">
                    <mxGeometry relative="1" as="geometry"/>
                </mxCell>
                <mxCell id="66" style="edgeStyle=none;html=1;exitX=1;exitY=0;exitDx=0;exitDy=0;entryX=0;entryY=1;entryDx=0;entryDy=0;" edge="1" parent="2" source="12" target="44">
                    <mxGeometry relative="1" as="geometry">
                        <Array as="points">
                            <mxPoint x="175.99999999999955" y="770"/>
                            <mxPoint x="175.99999999999955" y="630"/>
                        </Array>
                    </mxGeometry>
                </mxCell>
                <mxCell id="67" style="edgeStyle=none;html=1;exitX=1;exitY=0.5;exitDx=0;exitDy=0;entryX=0.865;entryY=0.979;entryDx=0;entryDy=0;entryPerimeter=0;" edge="1" parent="2" source="29" target="44">
                    <mxGeometry relative="1" as="geometry">
                        <Array as="points">
                            <mxPoint x="726.9999999999995" y="790"/>
                        </Array>
                    </mxGeometry>
                </mxCell>
                <mxCell id="68" style="edgeStyle=none;html=1;entryX=0.25;entryY=1;entryDx=0;entryDy=0;" edge="1" parent="2" source="14" target="44">
                    <mxGeometry relative="1" as="geometry">
                        <Array as="points">
                            <mxPoint x="680.9999999999995" y="910"/>
                        </Array>
                    </mxGeometry>
                </mxCell>
                <mxCell id="69" style="edgeStyle=none;html=1;exitX=1;exitY=0.5;exitDx=0;exitDy=0;entryX=1;entryY=0.25;entryDx=0;entryDy=0;" edge="1" parent="2" source="16" target="44">
                    <mxGeometry relative="1" as="geometry">
                        <mxPoint x="745.9999999999995" y="600" as="targetPoint"/>
                        <Array as="points">
                            <mxPoint x="155.99999999999955" y="980"/>
                            <mxPoint x="155.99999999999955" y="1050"/>
                            <mxPoint x="775.9999999999995" y="1050"/>
                            <mxPoint x="775.9999999999995" y="595"/>
                        </Array>
                    </mxGeometry>
                </mxCell>
                <mxCell id="70" style="edgeStyle=none;html=1;entryX=1;entryY=0.5;entryDx=0;entryDy=0;" edge="1" parent="2" source="30" target="44">
                    <mxGeometry relative="1" as="geometry">
                        <Array as="points">
                            <mxPoint x="765.9999999999995" y="980"/>
                            <mxPoint x="765.9999999999995" y="605"/>
                        </Array>
                    </mxGeometry>
                </mxCell>
                <mxCell id="71" style="edgeStyle=none;html=1;exitX=1;exitY=0;exitDx=0;exitDy=0;entryX=0.112;entryY=1.001;entryDx=0;entryDy=0;entryPerimeter=0;" edge="1" parent="2" source="38" target="44">
                    <mxGeometry relative="1" as="geometry"/>
                </mxCell>
                <mxCell id="72" style="edgeStyle=none;html=1;entryX=0.75;entryY=0;entryDx=0;entryDy=0;" edge="1" parent="2" source="18" target="44">
                    <mxGeometry relative="1" as="geometry">
                        <Array as="points">
                            <mxPoint x="795.9999999999995" y="1100"/>
                            <mxPoint x="795.9999999999995" y="560"/>
                            <mxPoint x="718.9999999999995" y="560"/>
                        </Array>
                    </mxGeometry>
                </mxCell>
                <mxCell id="73" style="edgeStyle=none;html=1;exitX=0;exitY=1;exitDx=0;exitDy=0;entryX=0.75;entryY=0;entryDx=0;entryDy=0;" edge="1" parent="2" source="30" target="19">
                    <mxGeometry relative="1" as="geometry"/>
                </mxCell>
                <mxCell id="74" value="" style="edgeStyle=none;html=1;" edge="1" parent="2" source="19" target="45">
                    <mxGeometry relative="1" as="geometry"/>
                </mxCell>
                <mxCell id="75" value="websocket" style="edgeStyle=none;html=1;" edge="1" parent="2" source="45" target="39">
                    <mxGeometry relative="1" as="geometry">
                        <Array as="points">
                            <mxPoint x="713.9999999999995" y="1300"/>
                        </Array>
                    </mxGeometry>
                </mxCell>
                <mxCell id="76" value="" style="edgeStyle=none;html=1;" edge="1" parent="2" source="39" target="31">
                    <mxGeometry relative="1" as="geometry"/>
                </mxCell>
                <mxCell id="77" value="" style="edgeStyle=none;html=1;" edge="1" parent="2" source="31" target="20">
                    <mxGeometry relative="1" as="geometry"/>
                </mxCell>
            </root>
        </mxGraphModel>
    </diagram>
</mxfile>